<svg xmlns="http://www.w3.org/2000/svg" viewBox="0 0 1256 1500">
	<!-- bg-blue-500 -->
	<path
		fill="#3b82f6"
		d="M164 914c-11-3-24-13-34-26l-3-4V751l10-10c11-10 20-16 31-18 17-3 40 7 47 23 7 15 7 14 8 34 1 80 0 93-7 108a46 46 0 0 1-52 26zm2-259-10-4c-9-4-20-14-22-20-4-10-6-52-6-145-1-88 1-155 4-181l2-8 9-6 10-6 4-3 10-6 10-5 11-6 27-15a3605 3605 0 0 1 79-41A12201 12201 0 0 1 640 38c16-8 26-12 29-12a341 341 0 0 1 56 21 937 937 0 0 0 43 21l35 16a14478 14478 0 0 1 378 193l19 11c13 8 15 13 16 29 0 12-1 21-5 29-4 7-5 9-9 9l-3 1-9 3-9 4-14 6-14 5-7 3-10 4a315 315 0 0 1-38 15l-9 3-9 4a1920 1920 0 0 0-94 37l-6 3-14 5a11554 11554 0 0 1-41 16l-4 2-2-6v3c0 3-1 4-6 6l-10 3-3 1-107 45-111 47-5 3-121-51a6702 6702 0 0 1-137-60l-3-3a878 878 0 0 0-70-29l-11-4a1086 1086 0 0 0-101-37l-8 1-1 4a29728 29728 0 0 1-3 150l-2 83-1 7-8 8c-14 14-25 19-36 19l-9-1zm639-497-1-1-1 1 1 1 1-1z"
	/>
	<!-- bg-neutral-800 -->
	<path
		fill="#262626"
		d="m661 1312-46-3c-57-7-115-35-150-71-19-20-33-46-40-70-6-23-5-1-6-369l1-339a9475 9475 0 0 0 137 58l120 49 7-3 7-3 12-5 18-7 10-4a17139 17139 0 0 1 169-69v668l-2 11-6 20c-3 9-15 35-18 38l-8 11c-21 27-55 51-94 67a320 320 0 0 1-84 21h-8l-7 1-12-1z"
	/>
</svg>

